{"title":"200 MPH [2011] Dvdrip - PRESTiGE","uid":6794889,"size":734818835,"categoryP":"video","categoryS":"movies","magnet":"?xt=urn:btih:ab23745df9f3d7a520419aebfd268a1eadbc0c2c&amp;dn=200+MPH+%5B2011%5D+Dvdrip+-+PRESTiGE&amp;tr=udp%3A%2F%2Ftracker.openbittorrent.com%3A80&amp;tr=udp%3A%2F%2Fopen.demonii.com%3A1337&amp;tr=udp%3A%2F%2Ftracker.coppersurfer.tk%3A6969&amp;tr=udp%3A%2F%2Fexodus.desync.com%3A6969","seeders":0,"leechers":0,"uploader":"crazy-torrent","files":2,"time":1320365741,"description":" &lt;a href=&quot; http://www.scenespeeds.com/&quot; rel=&quot;nofollow&quot; target=&quot;_NEW&quot;&gt; http://www.scenespeeds.com/&lt;/a&gt;\n\n  |  | |  | |  | \n  |/\\| |/\\| |/\\|,\n  ~  ~ ~  ~ ~  ~~\n                  \n   _, __,  _, ___,\n  / ` |_) /_\\ ` / \n  \\ , | \\ | |  /  \n   ~  ~ ~ ~ ~ ~~~ \n                  \n , _    ___  _, __,\n \\ |     |  / \\ |_)\n  \\| ~~  |  \\ / | \\\n   )     ~   ~  ~ ~\n  ~'               \n  __, __, _, _ ___ \n  |_) |_  |\\ |  |  \n  | \\ |   | \\|  | ,\n  ~ ~ ~~~ ~  ~  ~ ~\n                   \n     _,  _, _, _\n    / ` / \\ |\\/|\n    \\ , \\ / |  |\n     ~   ~  ~  ~\n\n\nDescription\n\nComplete name : 200 MPH [2011] Dvdrip - PRESTiGE.avi\nFormat : AVI\nFormat/Info : Audio Video Interleave\nFile size : 701 MiB\nDuration : 1h 28mn\nOverall bit rate : 1 109 Kbps IMDB: http://www.imdb.com/title/tt1823051/\nEncoder:Twisted\nSource: 100mph 2011 dvd5\nVideo\nFormat : MPEG-4 Visual\nFormat profile : Advanced Simple@L5\nFormat settings, BVOP : 2\nFormat settings, QPel : No\nFormat settings, GMC : No warppoints\nFormat settings, Matrix : Default (H.263)\nMuxing mode : Packed bitstream\nCodec ID : XVID\nCodec ID/Hint : XviD\nDuration : 1h 28mn\nBit rate : 971 Kbps\nWidth : 720 pixels\nHeight : 400 pixels\nDisplay aspect ratio : 16:9\nFrame rate : 25.000 fps\nColor space : YUV\nChroma subsampling : 4:2:0\nBit depth : 8 bits\nScan type : Progressive\nCompression mode : Lossy\nBits/(Pixel*Frame) : 0.135\nStream size : 614 MiB (88%)\nWriting library : XviD 63\nAudio\nFormat : MPEG Audio\nFormat version : Version 1\nFormat profile : Layer 3\nMode : Joint stereo\nMode extension : MS Stereo\nCodec ID : 55\nCodec ID/Hint : MP3\nDuration : 1h 28mn\nBit rate mode : Constant\nBit rate : 128 Kbps\nChannel(s) : 2 channels\nSampling rate : 44.1 KHz\nCompression mode : Lossy\nDelay relative to video : 26ms\nStream size : 80.9 MiB (12%)\nAlignment : Split accross interleaves\nInterleave, duration : 40 ms (1.00 video frame)\nInterleave, preload duration : 500 ms\n","torrent":{"xt":"urn:btih:ab23745df9f3d7a520419aebfd268a1eadbc0c2c","amp;dn":"200+MPH+%5B2011%5D+Dvdrip+-+PRESTiGE","amp;tr":["udp%3A%2F%2Ftracker.openbittorrent.com%3A80","udp%3A%2F%2Fopen.demonii.com%3A1337","udp%3A%2F%2Ftracker.coppersurfer.tk%3A6969","udp%3A%2F%2Fexodus.desync.com%3A6969"],"infoHash":"ab23745df9f3d7a520419aebfd268a1eadbc0c2c","infoHashBuffer":{"type":"Buffer","data":[171,35,116,93,249,243,215,165,32,65,154,235,253,38,138,30,173,188,12,44]},"announce":[],"urlList":[]}}